<svg xmlns="http://www.w3.org/2000/svg" width="512" height="512" viewBox="0 0 512 512">
<!-- aero-asset-tycoon procedural stand-in: ata-propulsion -->
<defs><linearGradient id="b-plate" x1="0" y1="0" x2="0.4" y2="1"><stop offset="0" stop-color="#39424b"/><stop offset="0.5" stop-color="#232a31"/><stop offset="1" stop-color="#161b20"/></linearGradient><linearGradient id="b-edge" x1="0" y1="0" x2="0" y2="1"><stop offset="0" stop-color="#ffffff" stop-opacity="0.3"/><stop offset="0.5" stop-color="#ffffff" stop-opacity="0.04"/><stop offset="1" stop-color="#ffffff" stop-opacity="0"/></linearGradient><radialGradient id="b-glow" cx="0.5" cy="0.42" r="0.6"><stop offset="0" stop-color="#1b6fd4" stop-opacity="0.22"/><stop offset="1" stop-color="#1b6fd4" stop-opacity="0"/></radialGradient></defs>
<rect x="36" y="36" width="440" height="440" rx="84" fill="#05070a" opacity="0.35" transform="translate(6 10)"/><rect x="36" y="36" width="440" height="440" rx="84" fill="url(#b-plate)"/><rect x="36" y="36" width="440" height="440" rx="84" fill="url(#b-glow)"/><rect x="40" y="40" width="432" height="432" rx="80" fill="none" stroke="url(#b-edge)" stroke-width="4"/>
<circle cx="256" cy="256" r="186" fill="none" stroke="#d2d8dd" stroke-width="24" opacity="0.85"/><path d="M 308 256 Q 370.09 318.33 409.4 324.5 L 382.3 366.78 Q 339.51 353 301.13 281.84 Z" fill="#d2d8dd"/><path d="M 288.42 296.66 Q 278.4 384.06 298.08 418.64 L 248.14 423.82 Q 232.23 381.77 263.94 307.39 Z" fill="#d2d8dd"/><path d="M 244.43 306.7 Q 169.85 353.36 155.08 390.31 L 119.9 354.49 Q 142.85 315.83 220.77 294.25 Z" fill="#d2d8dd"/><path d="M 209.15 278.56 Q 126.17 249.35 88.07 260.84 L 94.14 210.99 Q 138.67 204.84 204.13 252.3 Z" fill="#d2d8dd"/><path d="M 209.15 233.44 Q 180.25 150.35 147.51 127.72 L 190.27 101.39 Q 222.85 132.37 226.55 213.14 Z" fill="#d2d8dd"/><path d="M 244.43 205.3 Q 291.38 130.91 288.65 91.2 L 335.89 108.21 Q 331.99 153 271.15 206.26 Z" fill="#d2d8dd"/><path d="M 288.42 215.34 Q 375.86 205.66 405.2 178.78 L 421.36 226.32 Q 383.91 251.19 304.34 236.83 Z" fill="#d2d8dd"/><circle cx="256" cy="256" r="56" fill="#3f8ee8"/><circle cx="256" cy="256" r="24" fill="#1c2126"/>
</svg>
