<svg xmlns="http://www.w3.org/2000/svg" width="1500" height="1000" viewBox="0 0 1500 1000">
<!-- aero-asset-tycoon procedural stand-in: card-favor -->
<defs><linearGradient id="c-air" x1="0" y1="0" x2="0" y2="1"><stop offset="0" stop-color="#232a31"/><stop offset="1" stop-color="#12171b"/></linearGradient><radialGradient id="c-vig" cx="750" cy="480" r="930" gradientUnits="userSpaceOnUse"><stop offset="0" stop-color="#000000" stop-opacity="0"/><stop offset="0.6" stop-color="#000000" stop-opacity="0.1"/><stop offset="1" stop-color="#05070a" stop-opacity="0.58"/></radialGradient><linearGradient id="c-floor" x1="0" y1="580" x2="0" y2="1000" gradientUnits="userSpaceOnUse"><stop offset="0" stop-color="#232a31"/><stop offset="1" stop-color="#101418"/></linearGradient><radialGradient id="c-doorGlow" cx="0.5" cy="0.62" r="0.6"><stop offset="0" stop-color="#f4e6c8" stop-opacity="0.85"/><stop offset="0.55" stop-color="#d9c9a8" stop-opacity="0.35"/><stop offset="1" stop-color="#d9c9a8" stop-opacity="0"/></radialGradient><linearGradient id="c-doorFill" x1="0" y1="0" x2="0" y2="1"><stop offset="0" stop-color="#c8b285"/><stop offset="1" stop-color="#efe4cc"/></linearGradient></defs>
<rect x="0" y="0" width="1500" height="1000" fill="url(#c-air)"/>
<rect x="0" y="0" width="1500" height="880" fill="#1e242a"/>
<rect x="0" y="120" width="1500" height="6" fill="#39424b" opacity="0.5"/>
<rect x="60" y="0" width="6" height="880" fill="#151a1f" opacity="0.7"/>
<rect x="208" y="0" width="6" height="880" fill="#151a1f" opacity="0.7"/>
<rect x="356" y="0" width="6" height="880" fill="#151a1f" opacity="0.7"/>
<rect x="504" y="0" width="6" height="880" fill="#151a1f" opacity="0.7"/>
<rect x="652" y="0" width="6" height="880" fill="#151a1f" opacity="0.7"/>
<rect x="800" y="0" width="6" height="880" fill="#151a1f" opacity="0.7"/>
<rect x="948" y="0" width="6" height="880" fill="#151a1f" opacity="0.7"/>
<rect x="1096" y="0" width="6" height="880" fill="#151a1f" opacity="0.7"/>
<rect x="1244" y="0" width="6" height="880" fill="#151a1f" opacity="0.7"/>
<rect x="1392" y="0" width="6" height="880" fill="#151a1f" opacity="0.7"/>
<path d="M 470 880 L 470 430 Q 750 180 1030 430 L 1030 880 Z" fill="url(#c-doorFill)"/>
<ellipse cx="750" cy="700" rx="620" ry="520" fill="url(#c-doorGlow)"/>
<path d="M 470 880 L 470 430 Q 750 180 1030 430 L 1030 880" fill="none" stroke="#9aa4ad" stroke-width="14" opacity="0.75"/>
<rect x="320" y="380" width="140" height="500" fill="#2b333a"/>
<rect x="1040" y="380" width="140" height="500" fill="#2b333a"/>
<rect x="0" y="880" width="1500" height="120" fill="url(#c-floor)"/>
<polygon points="470,880 1030,880 1250,1000 250,1000" fill="#e8dcc0" opacity="0.10"/>
<g transform="translate(660 0) scale(1 1)"><circle cx="0" cy="528.57" r="28.57" fill="#12171b"/><path d="M -40 900 L -34.29 582.86 C -28.57 554.29, 28.57 554.29, 34.29 582.86 L 41.9 900 Z" fill="#12171b"/><path d="M 28.57 597.14 C 70.48 625.71, 91.43 671.43, 106.67 688.57" fill="none" stroke="#12171b" stroke-width="19.05" stroke-linecap="round"/></g>
<g transform="translate(880 0) scale(-1 1)"><circle cx="0" cy="541.57" r="27.57" fill="#12171b"/><path d="M -38.6 900 L -33.09 593.96 C -27.57 566.39, 27.57 566.39, 33.09 593.96 L 40.44 900 Z" fill="#12171b"/><path d="M 27.57 607.74 C 68.01 635.31, 88.23 679.43, 102.93 695.97" fill="none" stroke="#12171b" stroke-width="18.38" stroke-linecap="round"/></g>
<ellipse cx="770" cy="906" rx="210" ry="20" fill="#05070a" opacity="0.45"/>
<circle cx="770" cy="684" r="16" fill="#12171b"/>
<rect x="0" y="0" width="1500" height="1000" fill="url(#c-vig)"/>
</svg>
