<svg xmlns="http://www.w3.org/2000/svg" width="512" height="512" viewBox="0 0 512 512">
<!-- aero-asset-tycoon procedural stand-in: facility-lessor -->
<defs><linearGradient id="i-plate" x1="0" y1="0" x2="0" y2="1"><stop offset="0" stop-color="#39424b"/><stop offset="1" stop-color="#1c2126"/></linearGradient><radialGradient id="i-shadow" cx="0.5" cy="0.5" r="0.5"><stop offset="0" stop-color="#05070a" stop-opacity="0.42"/><stop offset="1" stop-color="#05070a" stop-opacity="0"/></radialGradient><linearGradient id="i-roof" x1="0" y1="0" x2="1" y2="1"><stop offset="0" stop-color="#eef1f3"/><stop offset="0.55" stop-color="#cbd2d8"/><stop offset="1" stop-color="#a7b0b8"/></linearGradient></defs>
<ellipse cx="264" cy="340" rx="168" ry="58" fill="url(#i-shadow)"/><polygon points="256,186 453.45,300 256,414 58.55,300" fill="url(#i-plate)"/><polygon points="256,201 427.47,300 256,399 84.53,300" fill="#20262c"/><polyline points="58.55,300 256,186 453.45,300" fill="none" stroke="#9aa4ad" stroke-width="2.5" opacity="0.5"/>
<g transform="translate(256 300) scale(1.17) translate(-256 -300)"><polygon points="256,216 370.32,282 256,348 141.68,282" fill="#333c45"/><polygon points="141.68,282 256,348 256,366 141.68,300" fill="#4a545e"/><polygon points="370.32,282 256,348 256,366 370.32,300" fill="#262d34"/><polygon points="256,78 318.35,114 256,150 193.65,114" fill="#eef1f3"/><polygon points="193.65,114 256,150 256,318 193.65,282" fill="#4a545e"/><polygon points="318.35,114 256,150 256,318 318.35,282" fill="#262d34"/><polygon points="193.65,270 256,306 256,293.4 193.65,257.4" fill="#2a5f96" opacity="0.55"/><polygon points="193.65,248.4 256,284.4 256,271.8 193.65,235.8" fill="#2a5f96" opacity="0.55"/><polygon points="193.65,226.8 256,262.8 256,250.2 193.65,214.2" fill="#2a5f96" opacity="0.55"/><polygon points="193.65,205.2 256,241.2 256,228.6 193.65,192.6" fill="#2a5f96" opacity="0.55"/><polygon points="193.65,183.6 256,219.6 256,207 193.65,171" fill="#2a5f96" opacity="0.55"/><polygon points="193.65,162 256,198 256,185.4 193.65,149.4" fill="#2a5f96" opacity="0.55"/><polygon points="193.65,140.4 256,176.4 256,163.8 193.65,127.8" fill="#2a5f96" opacity="0.55"/><polygon points="256,75 297.57,99 256,123 214.43,99" fill="#9aa4ad"/><polygon points="214.43,99 256,123 256,138 214.43,114" fill="#333c45"/><polygon points="297.57,99 256,123 256,138 297.57,114" fill="#1c2126"/><polygon points="185.85,307.5 211.83,322.5 211.83,340.5 185.85,325.5" fill="#161b20"/><rect x="221.82" y="96" width="6" height="46" fill="#9aa4ad"/><circle cx="224.82" cy="92" r="7" fill="#b23a2f" opacity="0.9"/></g>
</svg>
