<svg xmlns="http://www.w3.org/2000/svg" width="2560" height="1440" viewBox="0 0 2560 1440">
<!-- aero-asset-tycoon procedural stand-in: hq-monitors-idle -->
<defs><clipPath id="dashboardClip"><polygon points="722,400 1042,412 1042,970 722,982"/></clipPath><clipPath id="gridClip"><polygon points="1108,388 1452,388 1452,1000 1108,1000"/></clipPath><clipPath id="treeClip"><polygon points="1518,412 1838,400 1838,982 1518,970"/></clipPath><linearGradient id="glassL" x1="722" y1="400" x2="1042" y2="982" gradientUnits="userSpaceOnUse"><stop offset="0" stop-color="#131a20"/><stop offset="1" stop-color="#0d1216"/></linearGradient><linearGradient id="glassC" x1="1108" y1="388" x2="1452" y2="1000" gradientUnits="userSpaceOnUse"><stop offset="0" stop-color="#141b22"/><stop offset="1" stop-color="#0d1217"/></linearGradient><linearGradient id="glassR" x1="1518" y1="400" x2="1838" y2="982" gradientUnits="userSpaceOnUse"><stop offset="0" stop-color="#131a20"/><stop offset="1" stop-color="#0d1216"/></linearGradient><radialGradient id="screenBloom" cx="1280" cy="700" r="820" gradientUnits="userSpaceOnUse"><stop offset="0" stop-color="#3f8ee8" stop-opacity="0.16"/><stop offset="1" stop-color="#3f8ee8" stop-opacity="0"/></radialGradient></defs>
<rect x="863" y="986" width="38" height="51" fill="#39424b"/><rect x="863" y="986" width="9" height="51" fill="#5d666f" opacity="0.7"/><ellipse cx="882" cy="1053" rx="96" ry="18" fill="#2b333a"/><ellipse cx="882" cy="1049" rx="88" ry="14" fill="#4a545e"/><ellipse cx="882" cy="1069" rx="120" ry="16" fill="#05070a" opacity="0.32"/>
<rect x="1261" y="1004" width="38" height="41" fill="#39424b"/><rect x="1261" y="1004" width="9" height="41" fill="#5d666f" opacity="0.7"/><ellipse cx="1280" cy="1061" rx="96" ry="18" fill="#2b333a"/><ellipse cx="1280" cy="1057" rx="88" ry="14" fill="#4a545e"/><ellipse cx="1280" cy="1077" rx="120" ry="16" fill="#05070a" opacity="0.32"/>
<rect x="1659" y="986" width="38" height="51" fill="#39424b"/><rect x="1659" y="986" width="9" height="51" fill="#5d666f" opacity="0.7"/><ellipse cx="1678" cy="1053" rx="96" ry="18" fill="#2b333a"/><ellipse cx="1678" cy="1049" rx="88" ry="14" fill="#4a545e"/><ellipse cx="1678" cy="1069" rx="120" ry="16" fill="#05070a" opacity="0.32"/>
<polygon points="704,382 1060,394 1060,988 704,1000" fill="#20262c"/><polygon points="716,394 1048,406 1048,976 716,988" fill="#2e363e"/><polygon points="722,400 1042,412 1042,970 722,982" fill="#0d1115"/><polyline points="704,382 1060,394" fill="none" stroke="#9aa4ad" stroke-width="3" opacity="0.55"/><polyline points="704,1000 704,382" fill="none" stroke="#9aa4ad" stroke-width="3" opacity="0.35"/>
<polygon points="1090,370 1470,370 1470,1018 1090,1018" fill="#20262c"/><polygon points="1102,382 1458,382 1458,1006 1102,1006" fill="#2e363e"/><polygon points="1108,388 1452,388 1452,1000 1108,1000" fill="#0d1115"/><polyline points="1090,370 1470,370" fill="none" stroke="#9aa4ad" stroke-width="3" opacity="0.55"/><polyline points="1090,1018 1090,370" fill="none" stroke="#9aa4ad" stroke-width="3" opacity="0.35"/>
<polygon points="1500,394 1856,382 1856,1000 1500,988" fill="#20262c"/><polygon points="1512,406 1844,394 1844,988 1512,976" fill="#2e363e"/><polygon points="1518,412 1838,400 1838,982 1518,970" fill="#0d1115"/><polyline points="1500,394 1856,382" fill="none" stroke="#9aa4ad" stroke-width="3" opacity="0.55"/><polyline points="1500,988 1500,394" fill="none" stroke="#9aa4ad" stroke-width="3" opacity="0.35"/>
<polygon points="722,400 1042,412 1042,970 722,982" fill="url(#glassL)"/>
<polygon points="1108,388 1452,388 1452,1000 1108,1000" fill="url(#glassC)"/>
<polygon points="1518,412 1838,400 1838,982 1518,970" fill="url(#glassR)"/>
<g clip-path="url(#dashboardClip)"><rect x="748" y="429.1" width="268" height="10" fill="#1b6fd4" opacity="0.34"/><rect x="748" y="466.93" width="193.49" height="20.95" rx="6" fill="#1b6fd4" opacity="0.2"/><rect x="748" y="503.01" width="115.85" height="20.95" rx="6" fill="#1b6fd4" opacity="0.22"/><rect x="748" y="539.1" width="200.94" height="20.95" rx="6" fill="#1b6fd4" opacity="0.23"/><rect x="748" y="575.18" width="138.02" height="20.95" rx="6" fill="#1b6fd4" opacity="0.2"/><rect x="748" y="611.27" width="240.23" height="20.95" rx="6" fill="#1b6fd4" opacity="0.13"/><rect x="748" y="647.35" width="117.34" height="20.95" rx="6" fill="#1b6fd4" opacity="0.24"/><circle cx="882" cy="839.41" r="83.2" fill="none" stroke="#1b6fd4" stroke-width="20" opacity="0.15"/><path d="M 882 756.21 A 83.2 83.2 0 0 1 954.38 881.01" fill="none" stroke="#1b6fd4" stroke-width="20" opacity="0.42" stroke-linecap="round"/><rect x="748" y="949.99" width="134" height="8" fill="#1b6fd4" opacity="0.21"/></g>
<g clip-path="url(#gridClip)"><rect x="1134" y="406.36" width="160.6" height="12" fill="#1b6fd4" opacity="0.34"/><rect x="1134" y="425.94" width="292" height="3" fill="#1b6fd4" opacity="0.17"/><rect x="1134" y="694" width="31.85" height="19.58" fill="#1b6fd4" opacity="0.23"/><rect x="1134" y="725.82" width="50.19" height="19.58" fill="#1b6fd4" opacity="0.08"/><rect x="1134" y="757.65" width="41.28" height="19.58" fill="#1b6fd4" opacity="0.23"/><rect x="1134" y="789.47" width="42.28" height="19.58" fill="#1b6fd4" opacity="0.23"/><rect x="1134" y="821.3" width="41.36" height="19.58" fill="#1b6fd4" opacity="0.08"/><rect x="1134" y="853.12" width="37.06" height="19.58" fill="#1b6fd4" opacity="0.08"/><rect x="1134" y="884.94" width="41.27" height="19.58" fill="#1b6fd4" opacity="0.23"/><rect x="1370.96" y="694" width="45.53" height="19.58" fill="#1b6fd4" opacity="0.23"/><rect x="1370.96" y="725.82" width="48.25" height="19.58" fill="#1b6fd4" opacity="0.08"/><rect x="1370.96" y="757.65" width="46.24" height="19.58" fill="#1b6fd4" opacity="0.23"/><rect x="1370.96" y="789.47" width="47.21" height="19.58" fill="#1b6fd4" opacity="0.08"/><rect x="1370.96" y="821.3" width="36.27" height="19.58" fill="#1b6fd4" opacity="0.23"/><rect x="1370.96" y="853.12" width="49.62" height="19.58" fill="#1b6fd4" opacity="0.23"/><rect x="1370.96" y="884.94" width="49.19" height="19.58" fill="#1b6fd4" opacity="0.23"/></g>
<g clip-path="url(#treeClip)"><rect x="1544" y="432.01" width="187.6" height="10" fill="#1b6fd4" opacity="0.29"/><circle cx="1601.2" cy="475.66" r="16" fill="#1b6fd4" opacity="0.42"/><line x1="1601.2" y1="475.66" x2="1601.2" y2="528.04" stroke="#1b6fd4" stroke-width="5" opacity="0.23"/><line x1="1601.2" y1="528.04" x2="1678" y2="528.04" stroke="#1b6fd4" stroke-width="5" opacity="0.23"/><circle cx="1678" cy="528.04" r="13" fill="#1b6fd4" opacity="0.29"/><rect x="1702" y="521.04" width="82.74" height="14" fill="#1b6fd4" opacity="0.13"/><line x1="1601.2" y1="528.04" x2="1601.2" y2="606.61" stroke="#1b6fd4" stroke-width="5" opacity="0.23"/><line x1="1601.2" y1="606.61" x2="1719.6" y2="606.61" stroke="#1b6fd4" stroke-width="5" opacity="0.23"/><circle cx="1719.6" cy="606.61" r="13" fill="#1b6fd4" opacity="0.3"/><rect x="1743.6" y="599.61" width="77.23" height="14" fill="#1b6fd4" opacity="0.13"/><line x1="1601.2" y1="606.61" x2="1601.2" y2="685.18" stroke="#1b6fd4" stroke-width="5" opacity="0.23"/><line x1="1601.2" y1="685.18" x2="1678" y2="685.18" stroke="#1b6fd4" stroke-width="5" opacity="0.23"/><circle cx="1678" cy="685.18" r="13" fill="#1b6fd4" opacity="0.39"/><rect x="1702" y="678.18" width="55.32" height="14" fill="#1b6fd4" opacity="0.13"/><line x1="1601.2" y1="685.18" x2="1601.2" y2="763.75" stroke="#1b6fd4" stroke-width="5" opacity="0.23"/><line x1="1601.2" y1="763.75" x2="1719.6" y2="763.75" stroke="#1b6fd4" stroke-width="5" opacity="0.23"/><circle cx="1719.6" cy="763.75" r="13" fill="#1b6fd4" opacity="0.36"/><rect x="1743.6" y="756.75" width="73.22" height="14" fill="#1b6fd4" opacity="0.13"/><line x1="1601.2" y1="763.75" x2="1601.2" y2="842.32" stroke="#1b6fd4" stroke-width="5" opacity="0.23"/><line x1="1601.2" y1="842.32" x2="1678" y2="842.32" stroke="#1b6fd4" stroke-width="5" opacity="0.23"/><circle cx="1678" cy="842.32" r="13" fill="#1b6fd4" opacity="0.26"/><rect x="1702" y="835.32" width="80.51" height="14" fill="#1b6fd4" opacity="0.13"/></g>
<g clip-path="url(#dashboardClip)"><polygon points="722,982 856.4,400 920.4,400 773.2,982" fill="#ffffff" opacity="0.035"/></g>
<g clip-path="url(#gridClip)"><polygon points="1108,1000 1252.48,388 1321.28,388 1163.04,1000" fill="#ffffff" opacity="0.035"/></g>
<g clip-path="url(#treeClip)"><polygon points="1518,982 1652.4,400 1716.4,400 1569.2,982" fill="#ffffff" opacity="0.035"/></g>
<circle cx="1050" cy="988" r="5" fill="#1f7a4d" opacity="0.8"/>
<circle cx="1460" cy="1006" r="5" fill="#1f7a4d" opacity="0.8"/>
<circle cx="1846" cy="988" r="5" fill="#1f7a4d" opacity="0.8"/>
</svg>
