<svg xmlns="http://www.w3.org/2000/svg" width="2560" height="1440" viewBox="0 0 2560 1440">
<!-- aero-asset-tycoon procedural stand-in: hq-wall-empty -->
<defs><linearGradient id="coneG" x1="0" y1="0" x2="0" y2="1"><stop offset="0" stop-color="#ffffff" stop-opacity="0.3"/><stop offset="1" stop-color="#ffffff" stop-opacity="0"/></linearGradient></defs>
<polygon points="228.68,99.76 296.68,99.76 384.68,876.82 140.68,876.82" fill="url(#coneG)"/>
<polygon points="231.76,99.76 299.76,99.76 387.76,876.82 143.76,876.82" fill="url(#coneG)"/>
<polygon points="433.25,99.76 501.25,99.76 589.25,876.82 345.25,876.82" fill="url(#coneG)"/>
<rect x="182.76" y="137.63" width="176" height="112" rx="3" fill="#5c666f" opacity="0.22"/><rect x="177.76" y="130.63" width="176" height="112" rx="3" fill="#4a545e"/><rect x="177.76" y="130.63" width="176" height="4" rx="2" fill="#c3cad1" opacity="0.8"/><rect x="186.76" y="139.63" width="158" height="94" rx="1" fill="#c8cfd5"/>
<rect x="384.25" y="136.76" width="176" height="112" rx="3" fill="#5c666f" opacity="0.22"/><rect x="379.25" y="129.76" width="176" height="112" rx="3" fill="#4a545e"/><rect x="379.25" y="129.76" width="176" height="4" rx="2" fill="#c3cad1" opacity="0.8"/><rect x="388.25" y="138.76" width="158" height="94" rx="1" fill="#c8cfd5"/>
<rect x="181.98" y="256.36" width="176" height="112" rx="3" fill="#5c666f" opacity="0.22"/><rect x="176.98" y="249.36" width="176" height="112" rx="3" fill="#4a545e"/><rect x="176.98" y="249.36" width="176" height="4" rx="2" fill="#c3cad1" opacity="0.8"/><rect x="185.98" y="258.36" width="158" height="94" rx="1" fill="#c8cfd5"/>
<rect x="384.22" y="260.48" width="176" height="112" rx="3" fill="#5c666f" opacity="0.22"/><rect x="379.22" y="253.48" width="176" height="112" rx="3" fill="#4a545e"/><rect x="379.22" y="253.48" width="176" height="4" rx="2" fill="#c3cad1" opacity="0.8"/><rect x="388.22" y="262.48" width="158" height="94" rx="1" fill="#c8cfd5"/>
<rect x="179.68" y="380.1" width="176" height="112" rx="3" fill="#5c666f" opacity="0.22"/><rect x="174.68" y="373.1" width="176" height="112" rx="3" fill="#4a545e"/><rect x="174.68" y="373.1" width="176" height="4" rx="2" fill="#c3cad1" opacity="0.8"/><rect x="183.68" y="382.1" width="158" height="94" rx="1" fill="#c8cfd5"/>
<rect x="389.27" y="379.91" width="176" height="112" rx="3" fill="#5c666f" opacity="0.22"/><rect x="384.27" y="372.91" width="176" height="112" rx="3" fill="#4a545e"/><rect x="384.27" y="372.91" width="176" height="4" rx="2" fill="#c3cad1" opacity="0.8"/><rect x="393.27" y="381.91" width="158" height="94" rx="1" fill="#c8cfd5"/>
<rect x="178.39" y="496.11" width="176" height="112" rx="3" fill="#5c666f" opacity="0.22"/><rect x="173.39" y="489.11" width="176" height="112" rx="3" fill="#4a545e"/><rect x="173.39" y="489.11" width="176" height="4" rx="2" fill="#c3cad1" opacity="0.8"/><rect x="182.39" y="498.11" width="158" height="94" rx="1" fill="#c8cfd5"/>
<rect x="387.98" y="499.78" width="176" height="112" rx="3" fill="#5c666f" opacity="0.22"/><rect x="382.98" y="492.78" width="176" height="112" rx="3" fill="#4a545e"/><rect x="382.98" y="492.78" width="176" height="4" rx="2" fill="#c3cad1" opacity="0.8"/><rect x="391.98" y="501.78" width="158" height="94" rx="1" fill="#c8cfd5"/>
<rect x="177.41" y="621.28" width="176" height="112" rx="3" fill="#5c666f" opacity="0.22"/><rect x="172.41" y="614.28" width="176" height="112" rx="3" fill="#4a545e"/><rect x="172.41" y="614.28" width="176" height="4" rx="2" fill="#c3cad1" opacity="0.8"/><rect x="181.41" y="623.28" width="158" height="94" rx="1" fill="#c8cfd5"/>
<rect x="384.13" y="616.86" width="176" height="112" rx="3" fill="#5c666f" opacity="0.22"/><rect x="379.13" y="609.86" width="176" height="112" rx="3" fill="#4a545e"/><rect x="379.13" y="609.86" width="176" height="4" rx="2" fill="#c3cad1" opacity="0.8"/><rect x="388.13" y="618.86" width="158" height="94" rx="1" fill="#c8cfd5"/>
<rect x="179.87" y="741.13" width="176" height="112" rx="3" fill="#5c666f" opacity="0.22"/><rect x="174.87" y="734.13" width="176" height="112" rx="3" fill="#4a545e"/><rect x="174.87" y="734.13" width="176" height="4" rx="2" fill="#c3cad1" opacity="0.8"/><rect x="183.87" y="743.13" width="158" height="94" rx="1" fill="#c8cfd5"/>
<rect x="385.4" y="741.82" width="176" height="112" rx="3" fill="#5c666f" opacity="0.22"/><rect x="380.4" y="734.82" width="176" height="112" rx="3" fill="#4a545e"/><rect x="380.4" y="734.82" width="176" height="4" rx="2" fill="#c3cad1" opacity="0.8"/><rect x="389.4" y="743.82" width="158" height="94" rx="1" fill="#c8cfd5"/>
<rect x="222.68" y="85.76" width="80" height="12" rx="4" fill="#4a545e"/><rect x="222.68" y="85.76" width="80" height="4" rx="2" fill="#eef1f3" opacity="0.85"/><rect x="259.68" y="97.76" width="6" height="8" fill="#9aa4ad"/><rect x="225.76" y="85.76" width="80" height="12" rx="4" fill="#4a545e"/><rect x="225.76" y="85.76" width="80" height="4" rx="2" fill="#eef1f3" opacity="0.85"/><rect x="262.76" y="97.76" width="6" height="8" fill="#9aa4ad"/><rect x="427.25" y="85.76" width="80" height="12" rx="4" fill="#4a545e"/><rect x="427.25" y="85.76" width="80" height="4" rx="2" fill="#eef1f3" opacity="0.85"/><rect x="464.25" y="97.76" width="6" height="8" fill="#9aa4ad"/>
</svg>
