<svg xmlns="http://www.w3.org/2000/svg" width="2560" height="1440" viewBox="0 0 2560 1440">
<!-- aero-asset-tycoon procedural stand-in: hq-wall-filled -->
<defs><linearGradient id="matG" x1="0" y1="0" x2="0" y2="1"><stop offset="0" stop-color="#f7f8f9"/><stop offset="1" stop-color="#dfe3e7"/></linearGradient><linearGradient id="awardG" x1="0" y1="0" x2="1" y2="1"><stop offset="0" stop-color="#eef1f3"/><stop offset="0.5" stop-color="#b9c1c8"/><stop offset="1" stop-color="#8f99a2"/></linearGradient></defs>
<rect x="522.7" y="82.18" width="170" height="124" rx="3" fill="#05070a" opacity="0.34"/><rect x="516.7" y="74.18" width="170" height="124" rx="3" fill="#9aa4ad"/><rect x="516.7" y="74.18" width="170" height="4" rx="2" fill="#eef1f3" opacity="0.85"/><rect x="525.7" y="83.18" width="152" height="106" rx="1" fill="#1a1f24"/>
<rect x="525.7" y="83.18" width="152" height="106" fill="url(#matG)"/>
<rect x="546.98" y="110.74" width="47.32" height="3.4" fill="#9aa4ad" opacity="0.55"/>
<rect x="546.98" y="122.4" width="51.89" height="3.4" fill="#9aa4ad" opacity="0.55"/>
<rect x="546.98" y="134.06" width="51.92" height="3.4" fill="#9aa4ad" opacity="0.55"/>
<rect x="546.98" y="145.72" width="57.91" height="3.4" fill="#9aa4ad" opacity="0.55"/>
<rect x="546.98" y="98.02" width="49" height="6" fill="#333c45" opacity="0.35"/>
<circle cx="647.3" cy="153.14" r="11.4" fill="#1b6fd4" opacity="0.55"/>
<circle cx="647.3" cy="153.14" r="5.78" fill="#114a91" opacity="0.5"/>
<polygon points="525.7,189.18 589.54,83.18 610.82,83.18 546.98,189.18" fill="#ffffff" opacity="0.16"/>
<rect x="734.56" y="81.01" width="170" height="124" rx="3" fill="#05070a" opacity="0.34"/><rect x="728.56" y="73.01" width="170" height="124" rx="3" fill="#9aa4ad"/><rect x="728.56" y="73.01" width="170" height="4" rx="2" fill="#eef1f3" opacity="0.85"/><rect x="737.56" y="82.01" width="152" height="106" rx="1" fill="#1a1f24"/>
<rect x="737.56" y="82.01" width="152" height="106" fill="url(#matG)"/>
<rect x="758.84" y="109.57" width="62.08" height="3.4" fill="#9aa4ad" opacity="0.55"/>
<rect x="758.84" y="121.23" width="61.49" height="3.4" fill="#9aa4ad" opacity="0.55"/>
<rect x="758.84" y="132.89" width="51.14" height="3.4" fill="#9aa4ad" opacity="0.55"/>
<rect x="758.84" y="144.55" width="64.98" height="3.4" fill="#9aa4ad" opacity="0.55"/>
<rect x="758.84" y="96.85" width="49" height="6" fill="#333c45" opacity="0.35"/>
<circle cx="859.16" cy="151.97" r="11.4" fill="#1b6fd4" opacity="0.55"/>
<circle cx="859.16" cy="151.97" r="5.78" fill="#114a91" opacity="0.5"/>
<polygon points="737.56,188.01 801.4,82.01 822.68,82.01 758.84,188.01" fill="#ffffff" opacity="0.16"/>
<rect x="961.73" y="80.48" width="170" height="124" rx="3" fill="#05070a" opacity="0.34"/><rect x="955.73" y="72.48" width="170" height="124" rx="3" fill="#9aa4ad"/><rect x="955.73" y="72.48" width="170" height="4" rx="2" fill="#eef1f3" opacity="0.85"/><rect x="964.73" y="81.48" width="152" height="106" rx="1" fill="#1a1f24"/>
<rect x="964.73" y="81.48" width="152" height="106" fill="url(#matG)"/>
<rect x="986.01" y="109.04" width="73.34" height="3.4" fill="#9aa4ad" opacity="0.55"/>
<rect x="986.01" y="120.7" width="59.54" height="3.4" fill="#9aa4ad" opacity="0.55"/>
<rect x="986.01" y="132.36" width="65.19" height="3.4" fill="#9aa4ad" opacity="0.55"/>
<rect x="986.01" y="144.02" width="46.6" height="3.4" fill="#9aa4ad" opacity="0.55"/>
<rect x="986.01" y="96.32" width="49" height="6" fill="#333c45" opacity="0.35"/>
<circle cx="1086.33" cy="151.44" r="11.4" fill="#1b6fd4" opacity="0.55"/>
<circle cx="1086.33" cy="151.44" r="5.78" fill="#114a91" opacity="0.5"/>
<polygon points="964.73,187.48 1028.57,81.48 1049.85,81.48 986.01,187.48" fill="#ffffff" opacity="0.16"/>
<rect x="1174.52" y="85.97" width="170" height="124" rx="3" fill="#05070a" opacity="0.34"/><rect x="1168.52" y="77.97" width="170" height="124" rx="3" fill="#9aa4ad"/><rect x="1168.52" y="77.97" width="170" height="4" rx="2" fill="#eef1f3" opacity="0.85"/><rect x="1177.52" y="86.97" width="152" height="106" rx="1" fill="#1a1f24"/>
<rect x="1177.52" y="86.97" width="152" height="106" fill="url(#matG)"/>
<rect x="1198.8" y="114.53" width="65.77" height="3.4" fill="#9aa4ad" opacity="0.55"/>
<rect x="1198.8" y="126.19" width="45.03" height="3.4" fill="#9aa4ad" opacity="0.55"/>
<rect x="1198.8" y="137.85" width="71.8" height="3.4" fill="#9aa4ad" opacity="0.55"/>
<rect x="1198.8" y="149.51" width="44.71" height="3.4" fill="#9aa4ad" opacity="0.55"/>
<rect x="1198.8" y="101.81" width="49" height="6" fill="#333c45" opacity="0.35"/>
<circle cx="1299.12" cy="156.93" r="11.4" fill="#1b6fd4" opacity="0.55"/>
<circle cx="1299.12" cy="156.93" r="5.78" fill="#114a91" opacity="0.5"/>
<polygon points="1177.52,192.97 1241.36,86.97 1262.64,86.97 1198.8,192.97" fill="#ffffff" opacity="0.16"/>
<rect x="1398.85" y="85.46" width="170" height="124" rx="3" fill="#05070a" opacity="0.34"/><rect x="1392.85" y="77.46" width="170" height="124" rx="3" fill="#9aa4ad"/><rect x="1392.85" y="77.46" width="170" height="4" rx="2" fill="#eef1f3" opacity="0.85"/><rect x="1401.85" y="86.46" width="152" height="106" rx="1" fill="#1a1f24"/>
<rect x="1401.85" y="86.46" width="152" height="106" fill="url(#matG)"/>
<rect x="1423.13" y="114.02" width="68.4" height="3.4" fill="#9aa4ad" opacity="0.55"/>
<rect x="1423.13" y="125.68" width="67.59" height="3.4" fill="#9aa4ad" opacity="0.55"/>
<rect x="1423.13" y="137.34" width="52.98" height="3.4" fill="#9aa4ad" opacity="0.55"/>
<rect x="1423.13" y="149" width="71.28" height="3.4" fill="#9aa4ad" opacity="0.55"/>
<rect x="1423.13" y="101.3" width="49" height="6" fill="#333c45" opacity="0.35"/>
<circle cx="1523.45" cy="156.42" r="11.4" fill="#1b6fd4" opacity="0.55"/>
<circle cx="1523.45" cy="156.42" r="5.78" fill="#114a91" opacity="0.5"/>
<polygon points="1401.85,192.46 1465.69,86.46 1486.97,86.46 1423.13,192.46" fill="#ffffff" opacity="0.16"/>
<rect x="1620.84" y="85.21" width="170" height="124" rx="3" fill="#05070a" opacity="0.34"/><rect x="1614.84" y="77.21" width="170" height="124" rx="3" fill="#9aa4ad"/><rect x="1614.84" y="77.21" width="170" height="4" rx="2" fill="#eef1f3" opacity="0.85"/><rect x="1623.84" y="86.21" width="152" height="106" rx="1" fill="#1a1f24"/>
<rect x="1623.84" y="86.21" width="152" height="106" fill="url(#matG)"/>
<rect x="1645.12" y="113.77" width="44.9" height="3.4" fill="#9aa4ad" opacity="0.55"/>
<rect x="1645.12" y="125.43" width="58.63" height="3.4" fill="#9aa4ad" opacity="0.55"/>
<rect x="1645.12" y="137.09" width="56.96" height="3.4" fill="#9aa4ad" opacity="0.55"/>
<rect x="1645.12" y="148.75" width="63.44" height="3.4" fill="#9aa4ad" opacity="0.55"/>
<rect x="1645.12" y="101.05" width="49" height="6" fill="#333c45" opacity="0.35"/>
<circle cx="1745.44" cy="156.17" r="11.4" fill="#1b6fd4" opacity="0.55"/>
<circle cx="1745.44" cy="156.17" r="5.78" fill="#114a91" opacity="0.5"/>
<polygon points="1623.84,192.21 1687.68,86.21 1708.96,86.21 1645.12,192.21" fill="#ffffff" opacity="0.16"/>
<rect x="517.24" y="240.14" width="170" height="124" rx="3" fill="#05070a" opacity="0.34"/><rect x="511.24" y="232.14" width="170" height="124" rx="3" fill="#9aa4ad"/><rect x="511.24" y="232.14" width="170" height="4" rx="2" fill="#eef1f3" opacity="0.85"/><rect x="520.24" y="241.14" width="152" height="106" rx="1" fill="#1a1f24"/>
<rect x="520.24" y="241.14" width="152" height="106" fill="url(#matG)"/>
<rect x="541.52" y="268.7" width="74.88" height="3.4" fill="#9aa4ad" opacity="0.55"/>
<rect x="541.52" y="280.36" width="53" height="3.4" fill="#9aa4ad" opacity="0.55"/>
<rect x="541.52" y="292.02" width="73.7" height="3.4" fill="#9aa4ad" opacity="0.55"/>
<rect x="541.52" y="303.68" width="74.06" height="3.4" fill="#9aa4ad" opacity="0.55"/>
<rect x="541.52" y="255.98" width="49" height="6" fill="#333c45" opacity="0.35"/>
<circle cx="641.84" cy="311.1" r="11.4" fill="#1b6fd4" opacity="0.55"/>
<circle cx="641.84" cy="311.1" r="5.78" fill="#114a91" opacity="0.5"/>
<polygon points="520.24,347.14 584.08,241.14 605.36,241.14 541.52,347.14" fill="#ffffff" opacity="0.16"/>
<rect x="739.23" y="245.04" width="170" height="124" rx="3" fill="#05070a" opacity="0.34"/><rect x="733.23" y="237.04" width="170" height="124" rx="3" fill="#9aa4ad"/><rect x="733.23" y="237.04" width="170" height="4" rx="2" fill="#eef1f3" opacity="0.85"/><rect x="742.23" y="246.04" width="152" height="106" rx="1" fill="#1a1f24"/>
<rect x="742.23" y="246.04" width="152" height="106" fill="url(#matG)"/>
<rect x="763.51" y="273.6" width="53.91" height="3.4" fill="#9aa4ad" opacity="0.55"/>
<rect x="763.51" y="285.26" width="48.62" height="3.4" fill="#9aa4ad" opacity="0.55"/>
<rect x="763.51" y="296.92" width="71.54" height="3.4" fill="#9aa4ad" opacity="0.55"/>
<rect x="763.51" y="308.58" width="67.94" height="3.4" fill="#9aa4ad" opacity="0.55"/>
<rect x="763.51" y="260.88" width="49" height="6" fill="#333c45" opacity="0.35"/>
<circle cx="863.83" cy="316" r="11.4" fill="#1b6fd4" opacity="0.55"/>
<circle cx="863.83" cy="316" r="5.78" fill="#114a91" opacity="0.5"/>
<polygon points="742.23,352.04 806.07,246.04 827.35,246.04 763.51,352.04" fill="#ffffff" opacity="0.16"/>
<rect x="956.02" y="247.04" width="170" height="124" rx="3" fill="#05070a" opacity="0.34"/><rect x="950.02" y="239.04" width="170" height="124" rx="3" fill="#9aa4ad"/><rect x="950.02" y="239.04" width="170" height="4" rx="2" fill="#eef1f3" opacity="0.85"/><rect x="959.02" y="248.04" width="152" height="106" rx="1" fill="#1a1f24"/>
<rect x="959.02" y="248.04" width="152" height="106" fill="url(#matG)"/>
<rect x="980.3" y="275.6" width="55.59" height="3.4" fill="#9aa4ad" opacity="0.55"/>
<rect x="980.3" y="287.26" width="49.8" height="3.4" fill="#9aa4ad" opacity="0.55"/>
<rect x="980.3" y="298.92" width="73.92" height="3.4" fill="#9aa4ad" opacity="0.55"/>
<rect x="980.3" y="310.58" width="45.66" height="3.4" fill="#9aa4ad" opacity="0.55"/>
<rect x="980.3" y="262.88" width="49" height="6" fill="#333c45" opacity="0.35"/>
<circle cx="1080.62" cy="318" r="11.4" fill="#1b6fd4" opacity="0.55"/>
<circle cx="1080.62" cy="318" r="5.78" fill="#114a91" opacity="0.5"/>
<polygon points="959.02,354.04 1022.86,248.04 1044.14,248.04 980.3,354.04" fill="#ffffff" opacity="0.16"/>
<rect x="1174.41" y="241.15" width="170" height="124" rx="3" fill="#05070a" opacity="0.34"/><rect x="1168.41" y="233.15" width="170" height="124" rx="3" fill="#9aa4ad"/><rect x="1168.41" y="233.15" width="170" height="4" rx="2" fill="#eef1f3" opacity="0.85"/><rect x="1177.41" y="242.15" width="152" height="106" rx="1" fill="#1a1f24"/>
<rect x="1177.41" y="242.15" width="152" height="106" fill="url(#matG)"/>
<rect x="1198.69" y="269.71" width="44.28" height="3.4" fill="#9aa4ad" opacity="0.55"/>
<rect x="1198.69" y="281.37" width="62.35" height="3.4" fill="#9aa4ad" opacity="0.55"/>
<rect x="1198.69" y="293.03" width="60.33" height="3.4" fill="#9aa4ad" opacity="0.55"/>
<rect x="1198.69" y="304.69" width="72.33" height="3.4" fill="#9aa4ad" opacity="0.55"/>
<rect x="1198.69" y="256.99" width="49" height="6" fill="#333c45" opacity="0.35"/>
<circle cx="1299.01" cy="312.11" r="11.4" fill="#1b6fd4" opacity="0.55"/>
<circle cx="1299.01" cy="312.11" r="5.78" fill="#114a91" opacity="0.5"/>
<polygon points="1177.41,348.15 1241.25,242.15 1262.53,242.15 1198.69,348.15" fill="#ffffff" opacity="0.16"/>
<rect x="1399.09" y="246.83" width="170" height="124" rx="3" fill="#05070a" opacity="0.34"/><rect x="1393.09" y="238.83" width="170" height="124" rx="3" fill="#9aa4ad"/><rect x="1393.09" y="238.83" width="170" height="4" rx="2" fill="#eef1f3" opacity="0.85"/><rect x="1402.09" y="247.83" width="152" height="106" rx="1" fill="#1a1f24"/>
<rect x="1402.09" y="247.83" width="152" height="106" fill="url(#matG)"/>
<rect x="1423.37" y="275.39" width="73.92" height="3.4" fill="#9aa4ad" opacity="0.55"/>
<rect x="1423.37" y="287.05" width="66.68" height="3.4" fill="#9aa4ad" opacity="0.55"/>
<rect x="1423.37" y="298.71" width="53.47" height="3.4" fill="#9aa4ad" opacity="0.55"/>
<rect x="1423.37" y="310.37" width="53.27" height="3.4" fill="#9aa4ad" opacity="0.55"/>
<rect x="1423.37" y="262.67" width="49" height="6" fill="#333c45" opacity="0.35"/>
<circle cx="1523.69" cy="317.79" r="11.4" fill="#1b6fd4" opacity="0.55"/>
<circle cx="1523.69" cy="317.79" r="5.78" fill="#114a91" opacity="0.5"/>
<polygon points="1402.09,353.83 1465.93,247.83 1487.21,247.83 1423.37,353.83" fill="#ffffff" opacity="0.16"/>
<rect x="1616" y="247.76" width="170" height="124" rx="3" fill="#05070a" opacity="0.34"/><rect x="1610" y="239.76" width="170" height="124" rx="3" fill="#9aa4ad"/><rect x="1610" y="239.76" width="170" height="4" rx="2" fill="#eef1f3" opacity="0.85"/><rect x="1619" y="248.76" width="152" height="106" rx="1" fill="#1a1f24"/>
<rect x="1619" y="248.76" width="152" height="106" fill="url(#matG)"/>
<rect x="1640.28" y="276.32" width="71.97" height="3.4" fill="#9aa4ad" opacity="0.55"/>
<rect x="1640.28" y="287.98" width="67.91" height="3.4" fill="#9aa4ad" opacity="0.55"/>
<rect x="1640.28" y="299.64" width="57.59" height="3.4" fill="#9aa4ad" opacity="0.55"/>
<rect x="1640.28" y="311.3" width="73.92" height="3.4" fill="#9aa4ad" opacity="0.55"/>
<rect x="1640.28" y="263.6" width="49" height="6" fill="#333c45" opacity="0.35"/>
<circle cx="1740.6" cy="318.72" r="11.4" fill="#1b6fd4" opacity="0.55"/>
<circle cx="1740.6" cy="318.72" r="5.78" fill="#114a91" opacity="0.5"/>
<polygon points="1619,354.76 1682.84,248.76 1704.12,248.76 1640.28,354.76" fill="#ffffff" opacity="0.16"/>
<rect x="1794" y="300" width="104" height="12" rx="3" fill="#9aa4ad"/>
<rect x="1794" y="300" width="104" height="4" rx="2" fill="#eef1f3" opacity="0.8"/>
<ellipse cx="1846" cy="298" rx="33.6" ry="6" fill="#05070a" opacity="0.35"/>
<polygon points="1846,226 1870,279.28 1859.44,300 1832.56,300 1822,279.28" fill="url(#awardG)"/>
<rect x="1835.44" y="271.88" width="21.12" height="7" fill="#1b6fd4" opacity="0.7"/>
</svg>
